<svg xmlns="http://www.w3.org/2000/svg" viewBox="0 0 1024.08 1493.33"><defs><style>.a{fill:#cecac8;}.b{fill:#ba9e8a;}.c{fill:#2f776a;}.d{fill:#4d574f;}.e{fill:#4e5850;}.f{fill:#4e5750;}.g{fill:#4f5851;}.h{fill:#b2927d;}.i{fill:#eae1db;}.j{fill:#515a53;}.k{fill:#505951;}.l{fill:#4f5951;}.m{fill:#f9faf9;}.n{fill:#5e6760;}.o{fill:#515b53;}.p{fill:#909691;}.q{fill:#d8dad8;}.r{fill:#b4b8b5;}.s{fill:#6c746d;}.t{fill:#838a84;}.u{fill:#505a52;}.v{fill:#525b54;}.w{fill:#dadbda;}.x{fill:#d7d9d8;}.y{fill:#515a52;}</style></defs><path class="a" d="M1024,509c-36.49,0-73-.08-109.47.06-4.17,0-6.5-1.22-8.65-5q-40.7-71-81.74-141.73c-9.24-16-18.46-32-27.88-47.84-2.3-3.89-2.21-6.83.17-10.89C816,270.19,835.2,236.55,854.55,203c17.44-30.25,35-60.46,52.32-90.76,1.78-3.11,4.25-3.17,7.16-3.17q52,0,104,0c2,0,4,0,6-.07Z" transform="translate(0 -0.75)"/><path class="a" d="M0,744c15.83,0,31.66.07,47.49-.15,3.2,0,4.87,1.29,6.3,3.77Q80.64,794.33,107.55,841q24.81,43,49.75,85.92c2.75,4.75,5.42,9.54,8.24,14.25a4,4,0,0,1,0,4.6Q143.2,984.15,121,1022.59q-23.47,40.59-46.87,81.24-10.33,17.94-20.57,35.94c-1.37,2.4-3.14,3.35-6,3.32-15.83-.15-31.66-.08-47.49-.09Z" transform="translate(0 -0.75)"/><path class="b" d="M108.89,2.25c11.28,19.31,22.49,38.67,33.89,57.91,7.77,13.13,14.68,26.76,23.27,39.4a2.67,2.67,0,0,1,.1,3.49c-17.75,28.63-34,58.16-50.91,87.25-16.48,28.27-32.76,56.64-49.11,85C61.64,283,57,290.73,52.8,298.63c-1.41,2.65-3.07,3.36-5.86,3.35-15.65-.08-31.29,0-46.94,0V3Q51.55,3,103.11,3C105,3,107.1,3.62,108.89,2.25Z" transform="translate(0 -0.75)"/><path class="c" d="M110,1494q32.59-56.41,65.11-112.87c1.89-3.3,3.87-4.55,7.75-4.54q110.24.21,220.48,0c3.78,0,5.87,1,7.81,4.41q31,54.17,62.31,108.14c.91,1.58,1.7,3.23,2.54,4.84Z" transform="translate(0 -0.75)"/><path class="c" d="M471,1c-.57,2.67-2.34,4.74-3.65,7-15.36,26.68-30.83,53.3-46.07,80-1.74,3-3.6,4-7,4q-110.73-.13-221.45,0c-2.79,0-4.82-.23-6.48-3.14C170,60.29,153.48,31.79,137,3.25c-.41-.71-.68-1.5-1-2.25Z" transform="translate(0 -0.75)"/><path class="a" d="M835,1494c3.35-8.73,8.8-16.34,13.37-24.39,15.5-27.3,31.37-54.39,47.11-81.55,2.08-3.6,4.62-7,6.21-10.78,1.9-4.54,5-5.31,9.46-5.29,37.61.12,75.23,0,112.85,0,0,39.5,0,79,.08,118.5,0,3-.6,3.59-3.58,3.58Q927.75,1493.92,835,1494Z" transform="translate(0 -0.75)"/><path class="d" d="M847,1083.08a8.21,8.21,0,0,1-.94,1.73c-8.91,9.75-10.2,21.2-7.77,33.6a47.72,47.72,0,0,1,.71,8.94c.06,10.67-4,15.73-15.61,18.56,3.65-6.18,8.49-10.92,9.49-17.57s.64-13.13,0-20a309.19,309.19,0,0,0-22.58,35.91c-4.34,8.06-5.12,14.15,1.07,22.58,12.5,17,21.8,36.13,31.55,54.88.6,1.16,1.19,2.32,2.11,4.12,1.22-1.6,2.07-2.91,3.11-4,.86-.93,1.22-3.39,3.15-1.92,1.41,1.08,2.42,3.26,1,4.82-4.56,4.92-2.47,9.43.42,14.19,2.32-1.14,2.77-3.58,3.92-5.45,3.13-5.06,5.57-5.33,9.33-.92s7.57,8.85,11.42,13.35l5.9-6.34c-3.72-2-8.16-2.78-9.76-7.17,3.36-1.35,5.84,1.21,8.75,1.53,3.21.36,4.86-.24,5-4,.28-6.5.43-12.91-1.88-20.49-.62,5.93-1.41,10.41-4.75,14-4.25,4.62-10.21,5-14.07.08s-8.55-7.1-14.78-6.07c-2.46.41-4.85-.16-5.65-2.9-.84-2.92-2.52-6,.33-8.85,3.24-3.19,7-5.19,11.7-4.08,3.54.85,7,2,10.53,3a23.55,23.55,0,0,0,8.28,1.05c6.11-.43,10.12-2.36,11-9.09.33-2.51,2.13-4.83,3.32-7.21.37-.73.92-1.47,1.93-1.18s.71,1.35.74,2.09a6.26,6.26,0,0,1-.21,3c-3.64,7.17-2.3,14.68-1.47,22.08.61,5.47,1,10.88-.07,16.41,2.41-.5,4.49-4.4,6.45-1.75,1.69,2.28-1.83,3.8-3.43,5.26-4.92,4.48-10,8.79-15,13.18-.83.72-2.3,1.15-1.82,2.64,3.48,10.78,1.85,21.71.75,32.69,13.92-4.12,25.67-2,31.4,5.9-2.65.49-5.22.78-7.68,1.45-7,1.9-9.68,8.4-6.29,14.83,1.42,2.7,4.71,5.33.07,8.44-1.39.93.72,2.61,1.46,3.76,5.72,9,5.75,9,14.67,3.5,1.13-.7,2.27-1.37,3.58-2.16,3.39,6.31,5.4,12.8,4.2,19.91-.32,1.89-.24,3,1.91,2.59,1.6-.33,4.35,1.56,4.5-2a5.75,5.75,0,0,0-.06-2c-3.08-9,2.81-15,7.46-21.29,3.27-4.39,4.72-4.11,8.53-.36,6.86,6.74,13.27,13.7,14,24,.15,2.1,1.62,1.72,2.87,1.72h45.48c1.55,0,3.37.06,2.59-2.25-2-5.88.09-11.49,1.11-18.53l-11.33,12.58c-6.7-9.64-7.51-19.93-5.65-30.71a3.25,3.25,0,0,1,.87-1.73c6.25-5.73,12.21-11.83,20.19-15.3,2.16-.94,3-.6,3.92,1.68,3,7.63,2.82,15.33.87,23.06-.67,2.66-.69,4.67,1.54,6.66,2.52,2.23,3.12,5.67,4.65,8.54v29c-38.83,0-77.66,0-116.49.09-3.43,0-4.8-.92-5.79-4.28a96.59,96.59,0,0,0-12.05-25.12c-26.2-40.38-49-82.71-73.1-124.34-8.25-14.26-16.76-28.37-25.3-42.46-1.62-2.67-2-4.6-.23-7.55,37.89-64,74.51-128.76,111.57-193.25,1.87-3.24,3.82-4.19,7.4-4.17,38,.13,76,.08,114,.08v25c-5.92-.38-12-.56-12.9-8.51-.25-2.09-1.9-1.45-3.08-1.46q-8.74-.09-17.49,0c-5.8,0-8.27,3.81-6,9.11.65,1.53,1.27,3.08,2,4.55,1.89,3.62,2.16,6.11-3.14,6.54-2.73.22-3.54,2.12-2.45,5.12,3.3,9.14,1.26,16-6.22,22.16-6.06,5-13.16,7.63-20.76,9.24-2.61.55-3-.54-3.18-2.8-1-15.69,1.72-27.87,20.41-34.28a18,18,0,0,0,2.32-1.36c-6.64-2.22-9.63-7.46-12.78-12.57-2.4-3.91-5.44-6.22-10.6-5.85-7.08.51-14.22.13-22.15.13,15.93,11.36,18.7,26.82,16.34,44.07-.14,1.1.14,2.55-1.15,3.11-5,2.17-7.65,6.82-11.17,10.52-1.73,1.82-2.9,1.57-4.8.07-11.3-8.88-12-20.79-9.79-33.52,1.19-6.89,2.51-13.75,4-20.57.62-2.77.3-3.66-2.84-3.8-4.42-.2-7.23.37-8.76,5.43-2.08,6.87-6.72,12.58-10.58,18.6-5.12,8-8.43,16.57-8.24,26.84a16.25,16.25,0,0,1,11.47-6.86c5.09-.68,9,1.79,12.63,4.78,1.21,1,3,2.56,2.13,4-1.17,2.14-2.9.06-4.26-.44-5.71-2.09-11.41-3.8-17.43-1.21-1.91.82-3.91,1.44-1.5,4.08,2.18,2.38,1.09,5-.33,7.38-2.29,3.84-5.78,6.41-9.55,8.6-4.88,2.85-9.85,5.55-14.75,8.38-3.28,1.9-6.21,4.06-4.42,8.6-1.63,0-3.26-.1-4.17,2.09,1.73.23,2.9-.65,4.15-1.23,6,.81,8.71,4.22,7.93,9.87-.43,3.14-4.77,5.78-8.85,5.56-2.27-.11-3.66-1-4.36-3.23a45.52,45.52,0,0,0-2.49-5.33c-2.39,5.71-4.31,11-8.11,15.2C847.85,1080.65,847.56,1082,847,1083.08Z" transform="translate(0 -0.75)"/><path class="b" d="M798,1494l50.81-88.27c7-12.12,13.86-24.3,21.07-36.27,2-3.35,1.73-5.83-.13-9q-38-65.42-75.75-131c-9.08-15.71-18.22-31.39-27.18-47.16-1.65-2.91-3.44-4.26-7-4.26q-103.2.18-206.41,0c-3.94,0-5.57,1.84-7.23,4.72q-37.74,65.57-75.57,131.07c-9.24,16-18.43,32-27.81,47.94-1.5,2.55-1.26,4.33.15,6.75q35.69,61.56,71.19,123.22A13.66,13.66,0,0,1,515,1494H500c-5.66-11.87-12.81-22.91-19.33-34.31-17.51-30.64-35.26-61.14-53-91.65-1.24-2.12-1.38-3.69-.11-5.89q50.19-86.65,100.23-173.38c3.83-6.64,7.69-13.25,11.39-20,1.42-2.58,3.07-3.77,6.23-3.77q111.23.15,222.45,0c2.81,0,4.5.75,6,3.3q48,83.31,96.11,166.54c4.83,8.36,9.49,16.82,14.56,25,2.18,3.52,2.3,6.23.15,9.93q-32.58,55.86-64.8,112c-2.33,4-4.57,8.12-6.85,12.18Z" transform="translate(0 -0.75)"/><path class="c" d="M505,1q-23.73,41.33-47.45,82.66c-3,5.18-8,10.46-8,15.68s5.1,10.49,8.08,15.66q48.15,83.45,96.25,166.92c1.84,3.21,3.78,4.21,7.38,4.2q103-.17,205.95,0c3.67,0,5.54-1.23,7.32-4.34q51.27-89.13,102.83-178.11c1.78-3.08,2.06-5.26.18-8.48C859.22,63.86,841.14,32.41,823,1h15q27.36,47.33,54.76,94.63c1.49,2.57,1.66,4.48.1,7.19q-55.68,96.12-111.08,192.39c-1.75,3-3.7,3.9-7.06,3.9q-110.47-.15-221,0c-3.6,0-5.59-1-7.43-4.2q-55-95.63-110.34-191.09c-1.91-3.31-2-5.64-.05-9,17.29-29.61,34.37-59.33,51.5-89,.91-1.58,1.71-3.22,2.56-4.83Z" transform="translate(0 -0.75)"/><path class="d" d="M0,713c5.83,0,11.67-.15,17.5.06,2.95.11,3.78-.9,3.4-3.7a79,79,0,0,1-.71-9c0-1.12-1-2.81,1-3.33,1.56-.4,2.38.76,3.2,1.86,2,2.67,4,5.3,6,7.93a29.84,29.84,0,0,0,2.79,3.49c2.77,2.66,5,3.07,7-1.13,2.82-5.74,6.23-11.18,9.87-17.58-10.15,4-18.32,1.06-25.95-4.33-1.13-.79-3.18-1.58-2.6-3.22.72-2,2.58-.6,3.91-.36,7.69,1.41,15.4,2.74,23,4.39,2.48.53,3.77.53,4.8-2.24,2.07-5.59,6-10.21,9.43-16-12,.66-23.45-.29-34.25,4.7-1.15.53-3.15,2.65-4.23.41s1.58-2.8,3-3.78c9-6.28,19-8.43,29.85-7.14,6.46.76,10.36-1.59,13.76-7.67,17.92-32.06,36.44-63.79,54.72-95.57-.39-1.31-1.51-1.4-2.34-1.63-18.7-5.19-19.54-19.84-19.22-33.31,0-2.05,1.29-2,2.68-1.85,10.49,1.44,20.15,4.48,26.44,13.93a16,16,0,0,0,1.5,2,17.42,17.42,0,0,0,1.61,1.39c1.34-1.85,2.69-3.6,3.92-5.42,5.28-7.75,5.29-8.71.31-16.4-.09-.14-.2-.27-.28-.42-1.91-3.68-2.94-8.74-6-10.68-3.18-2-7,2.79-11.06,3.29-4.71.57-5.17.23-3.83-4.46A27.82,27.82,0,0,0,120.5,501c.14-4.12-1.24-6.87-6.16-7.27-4.21-.34-8.66.08-13-2.22,2.95-3.73,6.74-6,10.58-8.21,6.09-3.5,5.83-3.36,2.31-9.14-2.92-4.81-5.09-10.07-7.77-15-1.69-3.12-3.3-5.94-7.89-2.88-3.51,2.34-7.26.71-9.31-3-1.93-3.48-2.88-7.56,1.11-10.21,4.26-2.84,3.84-5.4,1.42-9.29-4.57-7.32-8.46-15.05-12.86-22.47-3.58-6-7-7.23-13.87-5.34s-13,5.29-20.09,5.73c-4.56.28-9,0-13.23-1.78-1.22-.52-2.73-1.24-2.51-2.75.28-2,2.25-1.3,3.26-1.07,11.49,2.67,22-1.15,32.54-4.75,2.12-.72,5.5,0,5.76-3.21.24-3-5.14-7.82-8-8-5.07-.29-8-3-8.6-7.94-.08-.66-.3-1.56,0-1.95,4-4.87.43-8.68-1.72-12.66-4.11-7.6-8.42-15.11-12.36-22.8-1.5-2.94-3.26-4.22-6.58-3.84a43,43,0,0,1-8.49,0c-4.38-.37-4.75,1.22-3.08,4.84A49.7,49.7,0,0,1,26,376c-.8,4.5-2.43,8.61-6.27,11.64-1.76-1.67-2-3.84-2.62-5.81-3.32-11.44-6.65-13-17.09-7.82V353l15.81-12H0V324c14.49,0,29,.13,43.47-.09,3.53-.06,5.23,1.2,6.91,4.16Q91,399.89,131.89,471.59c5.1,9,11.38,17.19,17.09,25.78a100.3,100.3,0,0,1,12,23.45,9.83,9.83,0,0,1-1.05,8.87q-49.35,84.72-98.55,169.54c-4,6.9-8.19,13.71-12,20.74-1.62,3-3.46,4.18-7,4.12C28.32,723.87,14.16,724,0,724Z" transform="translate(0 -0.75)"/><path class="c" d="M1024,543q-30-.12-59.94-.23c-14.83,0-29.65.08-44.48-.08-3.06,0-4.73.93-6.26,3.59q-51.78,90-103.78,179.79a5.8,5.8,0,0,0,0,6.74q52,89.84,103.83,179.76c1.18,2,2.19,3.65,5.19,3.64C953.71,916,988.86,916,1024,916v13c-37.64,0-75.29,0-112.93.2-3.29,0-4.19-1.93-5.44-4.1Q866.35,857,827,789c-10.81-18.73-21.56-37.49-32.48-56.16a5.77,5.77,0,0,1,0-6.74q55.76-96.32,111.33-192.73c1.22-2.11,2.28-3.66,5.22-3.65q56,.18,111.94.12a4.85,4.85,0,0,1,1,.19Z" transform="translate(0 -0.75)"/><path class="c" d="M74,1494c-.27-2.23,1.39-3.67,2.34-5.32q34-59,68.16-117.93c1.83-3.13,1.84-5.31,0-8.46q-51.69-89.13-103-178.44c-1.73-3-3.56-4.13-7-4-11.49.25-23,.16-34.47.2v-13c14.49,0,29,0,43.47-.22,3.34-.07,4.21,1.94,5.43,4.07q43,74.55,86.08,149.1c8.16,14.12,16.2,28.31,24.54,42.31,1.85,3.12,1.85,5.31,0,8.46q-34.25,58.89-68.18,118c-.95,1.66-2.6,3.1-2.35,5.33Z" transform="translate(0 -0.75)"/><path class="d" d="M871,1c7.1,12.58,14.28,25.12,21.23,37.78,1.68,3,2.84,2.76,4.26.14,4.76-8.85,12.44-14.5,20.91-19.34s16.88-5.46,25.24.49a95.59,95.59,0,0,0,11.42,7.13c3.08,1.6,2.5,3.16.93,5.31C944.4,47.05,929.58,52.12,912.3,51.45c-4.25-.17-8.48-1.1-13.44-1.78,6.62,11.57,12.93,22.45,19.07,33.42,1.45,2.57,3.63,1.89,5.66,1.89q50.2,0,100.41,0V95c-35.47,0-71-.09-106.42.12-4.41,0-6.45-1.37-8.62-5.21-16-28.28-32.42-56.36-48.68-84.51C859.45,4,858.76,2.47,858,1Z" transform="translate(0 -0.75)"/><path class="d" d="M1024,1092c-.77.87-1.55,1.73-2.31,2.61-6.09,7.05-4.75,8.73-12.76-.43-6.25-7.15-6.48-16.08-5.48-25,1.24-11.2,3.91-22.18,4.69-33.83,7.76,3.37,11.54,9.48,13.87,16.85.61,2,.21,4.28,2,5.84Z" transform="translate(0 -0.75)"/><path class="d" d="M0,484c3.36-6.57,8.36-11.73,13.89-16.53a22.05,22.05,0,0,0,7-12.88c8.87,1.89,15.39,11.82,16,19.1.31,3.79-3.75,8.65-9.49,9.19C21,483.49,17.87,487.29,15,492l.09-.08c-5.4,4.46-9.92,3.54-13.5-2.69-.45-.79-.36-2-1.59-2.27Z" transform="translate(0 -0.75)"/><path class="d" d="M5.8,407c3.16-7.46,4.55-8.51,9.67-7.31a9.12,9.12,0,0,1,6.9,9.57C22,419.21,19.62,429,19.92,439A1.66,1.66,0,0,1,18.85,441C14.9,442.61,3.11,439.57,0,436V418C4.27,415.56,5.5,411.52,5.8,407Z" transform="translate(0 -0.75)"/><path class="d" d="M1024,1127c-5.67,2.82-11.16,2.09-16.75-.48-6.15-2.84-12.21-5.87-19.37-5.79-3.35,0-2.25-3.61-1.49-4.85,3.21-5.22,5.9-10.82,10.14-15.34,3-3.14,5.84-.81,8.6.38,1.88.82,2.94,2.65,3.89,4.42,2.28,4.29,5.48,7,10.68,6.74,1.42-.07,2.87.59,4.3.92Z" transform="translate(0 -0.75)"/><path class="d" d="M1024,24c-2.6.42-5.33.47-7.79,1.32-7.78,2.68-15.39.64-23-.53-1.26-.2-3.36-.19-3.11-2.39.27-2.36,2.3-1.27,3.54-1.36,7.54-.53,15.29,1.3,22.58-2l3.14-1.48c-4.63-4.05-9.08-7.75-13.28-11.72-2-1.9-3.15-.73-4.52.53a38.91,38.91,0,0,1-12.19,7.59c-1.26.5-3,2-4,.47-1.19-1.71.45-2.94,1.79-4,3.54-2.87,7.14-5.69,9.9-9.38,8.09,0,16.17.1,24.26-.07,2.28,0,2.89.37,2.82,2.78C1023.86,10.46,1024,17.23,1024,24Z" transform="translate(0 -0.75)"/><path class="d" d="M1024,66c-8.28.21-16.53-2.06-24.83-.28-2.58.56-2.8-1.56-1.89-2.52C1006.05,54,1010.47,40.5,1024,36Z" transform="translate(0 -0.75)"/><path class="d" d="M0,648c3.4-2.87,5.09-2.81,5.39,2.36.3,5,2.62,9.53,5.37,13.75a56.13,56.13,0,0,1,6.15,11.32c2.46,6.72.35,10.72-6.46,12.92-2.19.7-3.63.44-5.25-1.29S2.49,682.89,0,682Z" transform="translate(0 -0.75)"/><path class="d" d="M945,1a44.72,44.72,0,0,0,2.4,3.78c.91,1.18,2,2.21,2.14,3.82C930,13.72,920,14.63,910,1Z" transform="translate(0 -0.75)"/><path class="e" d="M1024,1280c-8.23,3.9-19.42-.7-23.18-9.18-2.1-4.75,1.36-7.21,4-9,2.44-1.66,6.08-.85,8.38,1.87,3.26,3.85,3.05,5.52-1.33,12.51,5.87,1.61,6.4,1.47,12.16-3.21Z" transform="translate(0 -0.75)"/><path class="e" d="M965.93,22.08c-9-.21-13.88-4.89-14-12.8C951.84,4.63,955.77,3.59,958,1h17c-.88,7-6.94,9-16.64,5.54-1.27,4.1-.51,7.29,3.56,9.51,2.29,1.24,4.58,2.84,3.91,6.14Z" transform="translate(0 -0.75)"/><path class="e" d="M1024,1035c-1.87-.12-2.31-1.69-2.94-3a61.1,61.1,0,0,1-6-23.9c-.12-2.45.1-4.39,2.6-5.78,2.22-1.24,3-3.81,4.32-6s.83.3,1.22.59v9l0,8c0,3.32,0,6.65,0,10,.15,2.38-1,4.93.89,7.1Z" transform="translate(0 -0.75)"/><path class="e" d="M0,699c2.76-2.41,5.83-3.8,9.54-2.63,3.09,1,5.84,2.27,6.44,6.09.54,3.42-1.28,5.27-3.78,6.88-3.06,2-6.19,2.37-9.31.21A31.56,31.56,0,0,1,0,707Z" transform="translate(0 -0.75)"/><path class="e" d="M1024,1216c-2.76-3.34-2.79-8.4-6.84-10.93l-1.19-1.13a51.36,51.36,0,0,1-3-5.57c-2.17-5.65,1.2-9.77,7.11-8.86,1.29.2,2.59.33,3.89.49Z" transform="translate(0 -0.75)"/><path class="e" d="M0,502a6.92,6.92,0,0,1,5.29-.8c5.17.89,8.44,4.89,7.64,9.92-.75,4.77-4.84,5.26-8.64,5.83A6.16,6.16,0,0,1,0,516Z" transform="translate(0 -0.75)"/><path class="e" d="M0,542c8-4.55,13.63-1.72,14.11,4.08.31,3.66-.83,6.33-4.4,8s-6,.58-8.11-2.27C1.12,551.13.54,550.59,0,550Z" transform="translate(0 -0.75)"/><path class="f" d="M0,379c5.57-1.92,10.16-.39,12.05,4.08,1.71,4.05.14,7-3.35,9.16-2.74,1.7-5.8.47-8.7.76Z" transform="translate(0 -0.75)"/><path class="g" d="M0,449c2.86.09,5.64.48,7.64,2.81s3.3,5.4,1.92,8.22c-1.81,3.7-5.5,5-9.56,5Z" transform="translate(0 -0.75)"/><path class="h" d="M108.89,2.25C107.1,3.62,105,3,103.11,3Q51.55,3,0,3V2C11.29,2,22.58,2,33.87,2l74.2-.2A2,2,0,0,1,108.89,2.25Z" transform="translate(0 -0.75)"/><path class="i" d="M108.07,1.8,33.87,2C22.58,2,11.29,2,0,2c.9-2.07,2.7-.94,4-.94Q56,.94,108,1C108,1.27,108.05,1.53,108.07,1.8Z" transform="translate(0 -0.75)"/><path class="j" d="M0,611c7.36.9,7.53,1,5,8-1.49,4.07-1.63,8.73-5,12Z" transform="translate(0 -0.75)"/><path class="k" d="M0,583a27.86,27.86,0,0,1,4,1.86c4.71,3.16,4.79,5.64.39,8.94C3,594.89,1.48,595.94,0,597Z" transform="translate(0 -0.75)"/><path class="l" d="M0,521c2.27.48,5.71-1.4,6.63,1.15s-1,5.43-2.91,7.6A34.09,34.09,0,0,1,0,533Z" transform="translate(0 -0.75)"/><path class="m" d="M5.8,407c-.3,4.53-1.53,8.57-5.8,11V407l4.84-.06Z" transform="translate(0 -0.75)"/><path class="n" d="M1024,1266c-3.5-2.25-3.07-5.79-2.79-9.12.14-1.68,1.45-1.86,2.79-.88Z" transform="translate(0 -0.75)"/><path class="o" d="M4.84,406.94,0,407v-5C3.24,402.06,4.21,404.33,4.84,406.94Z" transform="translate(0 -0.75)"/><path class="p" d="M1023.11,1023.9c0-3.32,0-6.65,0-10l.87.07v10Z" transform="translate(0 -0.75)"/><path class="q" d="M1023.16,1006v-9a3.94,3.94,0,0,1,.84,0v9A3.39,3.39,0,0,0,1023.16,1006Z" transform="translate(0 -0.75)"/><path class="r" d="M1023.16,1006a3.39,3.39,0,0,1,.84,0v8l-.87-.07Z" transform="translate(0 -0.75)"/><path class="s" d="M1023.11,1023.9l.89.1v7C1022.15,1028.83,1023.26,1026.28,1023.11,1023.9Z" transform="translate(0 -0.75)"/><path class="t" d="M983,1c-.61.62-.69,1.91-1.9,1.78-1-.1-1.09-1-1.1-1.78Z" transform="translate(0 -0.75)"/><path class="b" d="M662.29,722c-37,0-74,0-111,.08-3.48,0-5.25-1.15-7-4.11Q488.82,621.71,433,525.62c-1.54-2.65-1.6-4.49,0-7.18q55.8-96.09,111.33-192.35c1.87-3.24,3.88-4.17,7.45-4.17q110.47.16,221,0c4.25,0,6.36,1.34,8.47,5Q836.53,423,892.25,518.81c1.35,2.32,1.41,4,0,6.32q-56.16,96.75-112.09,193.65c-1.66,2.88-3.61,3.26-6.44,3.26Q718,722,662.29,722Zm.42-387c-34.66,0-69.31,0-104-.07-3.19,0-5,.83-6.7,3.73q-52,90.2-104.32,180.22c-1.37,2.35-1.29,4,0,6.32Q499.93,615,551.85,705c1.74,3,3.54,4.1,7,4.09q103.71-.14,207.42,0c3.19,0,5-.83,6.71-3.73q52-90.2,104.32-180.22c1.36-2.35,1.29-4,0-6.32Q825.09,429,773.17,339c-1.9-3.3-4-4.09-7.5-4.08C731.35,335.05,697,335,662.71,335Z" transform="translate(0 -0.75)"/><path class="a" d="M661.48,1141c-36.66,0-73.32-.07-110,.11-3.93,0-6-1.39-7.81-4.62q-33.08-57.51-66.34-114.92-22.47-38.88-44.91-77.76a4.8,4.8,0,0,1,0-5.49q37.71-64.92,75.31-129.91,18.1-31.3,36-62.78c1.83-3.23,3.85-4.64,7.79-4.63q110.24.19,220.46,0c3.63,0,5.55,1.14,7.38,4.34q29.48,51.53,59.31,102.86c16.57,28.64,33.06,57.34,49.88,85.83,3,5.08,3,8.9,0,14-17.21,29.23-34.07,58.68-51.06,88-18,31.08-36.48,61.9-53.7,93.4-5.08,9.3-10.68,12-20.81,11.78C729.15,1140.54,695.31,1141,661.48,1141Zm.37-13c34.33,0,68.66,0,103,.07,3.18,0,5-.76,6.7-3.72,7-12.49,14.26-24.8,21.41-37.19q23.56-40.83,47.12-81.67c11.48-19.87,22.91-39.78,34.57-59.54,2.15-3.66,2-6.5-.15-10-6.1-10.1-11.92-20.38-17.83-30.6q-42.35-73.2-84.58-146.46c-2-3.5-4.15-4.87-8.21-4.86q-102.24.18-204.48,0c-4.14,0-6.37,1.47-8.27,4.8C542.48,773.91,533.71,789,525,804.13q-38.69,67-77.41,133.9a5.12,5.12,0,0,0,0,5.92q13.9,23.65,27.59,47.44,38,65.89,76,131.85c1.9,3.3,4.09,4.86,8.25,4.83C593.52,1127.86,627.68,1128,661.85,1128Z" transform="translate(0 -0.75)"/><path class="a" d="M300,114.05c36.49,0,73,.06,109.47-.08,4.14,0,6.51,1.18,8.66,4.93q40.69,71,81.74,141.73c9.24,16,18.45,32,27.88,47.83,2.33,3.9,2.35,7.05,0,11Q494.29,377,461.08,434.75q-21.84,37.78-43.67,75.58A6.45,6.45,0,0,1,411,514q-111-.09-221.94,0c-3.48,0-5.1-1.6-6.58-4.17q-15-25.92-30-51.82-21.56-37.4-43-74.8-19.09-33-38.36-66c-1.46-2.51-1.13-4.58.25-7q40.85-70.59,81.6-141.23c9.9-17.13,19.88-34.21,29.62-51.44,1.83-3.24,4.21-3.64,7.4-3.63Q245,114.1,300,114.05ZM299.78,501q51.75,0,103.49,0c2.54,0,4.64,0,6.24-2.82,14.53-25.41,29.25-50.71,43.89-76,19.72-34.12,39.37-68.29,59.22-102.34,2.38-4.09,2.48-7.33,0-11.44-13.09-22.2-26-44.53-38.87-66.84Q442,186.42,410.28,131.25c-1.85-3.24-3.82-4.28-7.41-4.27q-102.74.13-205.47,0c-3.62,0-5.75,1.06-7.53,4.22q-13.83,24.57-28,48.94-37.73,65.2-75.55,130.35c-1.24,2.15-1.6,4-.16,6.43C95,332,103.52,347.22,112.25,362.35Q151,429.54,189.84,496.7c1.77,3.07,3.77,4.36,7.46,4.34C231.46,500.89,265.62,501,299.78,501Z" transform="translate(0 -0.75)"/><path class="c" d="M295,930.6c-36.65,0-73.31,0-110,.08-3.55,0-5.63-.86-7.5-4.11Q122.4,830.72,66.94,735.06c-1.83-3.17-1.78-5.4,0-8.53q55.29-95.46,110.31-191.09c1.9-3.31,3.9-4.51,7.77-4.5q110.22.19,220.44,0c3.92,0,5.82,1.3,7.69,4.55q55,95.63,110.34,191.08c1.82,3.14,1.86,5.32,0,8.47q-55.32,95.46-110.33,191.08c-1.89,3.28-3.84,4.61-7.75,4.59C368.64,930.53,331.82,930.6,295,930.6ZM295.24,544c-34.49,0-69,.05-103.46-.09-3.32,0-5,1.07-6.6,3.84q-51.54,89.55-103.3,179c-1.71,3-1.79,5,0,8.07q51.81,89.38,103.32,178.95c1.61,2.8,3.34,3.91,6.64,3.9q103.47-.15,206.92,0c3.31,0,5-1.11,6.6-3.92Q457,824,508.92,734.39c1.53-2.64,1.5-4.54,0-7.19q-51.79-89.4-103.33-179c-1.8-3.12-3.69-4.32-7.36-4.31C363.88,544.1,329.56,544,295.24,544Z" transform="translate(0 -0.75)"/><path class="b" d="M296,1353.85c-36.66,0-73.32-.06-110,.08-3.79,0-6-1-7.92-4.44q-55.17-95.9-110.64-191.61c-1.79-3.1-1.44-5.36.23-8.23q39.56-68.28,79-136.65c10.58-18.31,21.24-36.57,31.68-55,1.72-3,3.71-4,7.13-4q110.48.13,221,0c3.7,0,5.6,1.32,7.4,4.43,35.46,61.61,70.86,123.26,106.79,184.6,4.72,8.06,4.74,13.58-.05,21.75-36,61.47-71.47,123.3-107,185.07-1.73,3-3.67,4.08-7.1,4.07C369.65,1353.8,332.82,1353.85,296,1353.85Zm.08-13c34.17,0,68.33-.06,102.5.07,3.57,0,5.68-.91,7.54-4.14q51.57-89.62,103.41-179.08c1.67-2.88,1.43-5-.17-7.76Q457.55,1060.45,406,970.83c-1.65-2.87-3.43-3.82-6.67-3.82q-103.24.15-206.49,0c-3.41,0-5.26,1-7,4.06q-51.3,89.2-103,178.2c-2.06,3.55-1.78,6.1.21,9.53q51.48,88.82,102.64,177.81c1.83,3.19,3.75,4.32,7.39,4.31C227.42,1340.79,261.75,1340.85,296.08,1340.85Z" transform="translate(0 -0.75)"/><path class="d" d="M907,1187c-1.14-1.63-2.31-3.24-3.41-4.89-.92-1.37-1.79-2-3.67-1.34-5.33,1.9-10.51.49-15.58-1.33-6.87-2.47-13.65-5.27-21.23-5.6,1.13-4.36,2.07-8.4,3.23-12.38,1.36-4.66,6.82-8.3,11.56-8.57,3.29-.19,4.91,1.59,6.35,3.89,3.47,5.59,7.71,9.91,14.8,10.58,2.82.26,3.75,2.79,4.65,5.28.65,1.83-1.17,4.51,1.9,5.53a9.09,9.09,0,0,0,9.29-1.6c-5.16-5.79-5.93-11.32.92-15.2-5.15-4.33-9-1-13.14,2-1,.71-2,2.72-3.56,1.46s.18-2.71.76-3.9c3.41-7,9.84-8.69,15.74-4.06,5.18,4.05,11.11,7.55,9.82,15.93-.32,2.06,2.9.86,4.48,1.16,1.83.35,2.47-.82,2-2.36-.73-2.71-1.69-5.35-2.55-8,12.38-4.17,29.4,12.12,34.35,31.85-2.09,1.6-3.52-1.13-5.58-.84a16.09,16.09,0,0,1-4.61,8c5.07.94,9,1.08,11.57-3.63a7.74,7.74,0,0,1,5.26-3.5,10,10,0,0,1-12.61,11.67c-4-1.16-7-3.79-10-6.41s-6.06-5.1-10.64-5.48c-.12,3.5,4.14,5.07,3.36,8.61C928.22,1206,919,1200.61,911,1192Z" transform="translate(0 -0.75)"/><path class="d" d="M861.36,1079.52c18.69-.14,20-6.33,15.16-20.11,5.66-1.56,9.93.38,14.17,4.38,8.54,8.06,16.33,16.54,21,27.65a4.92,4.92,0,0,1-4.74-.08c-5.33-2.47-10.79-1-16.22-.46-2.16.23-2.1,1.3-.88,2.59a27.74,27.74,0,0,0,2.73,2.18c14,11.29,18.19,26,15.09,43.27-.19,1.07-.13,2.62-1.33,3.07-5.38,2-7.91,7-11.5,10.79-1.49,1.6-2.46,1.67-4.34.19-11-8.71-12.18-20.35-10.12-33,1.29-7.87,2.74-15.71,4.24-23.55.68-3.55.51-5.58-4.16-6-6.88-.59-13.31-3-17.86-8.76A15.71,15.71,0,0,1,861.36,1079.52Z" transform="translate(0 -0.75)"/><path class="d" d="M1010,1256c-3.72.85-6.78,1.59-9.86,2.23-2.31.49-3.43,1.3-2.44,4,.48,1.33,2,3.34.43,4.5-1.83,1.34-3.12-1.16-5.09-1.83.13,5.1,4.37,8.27,5.33,12.69-6.37,3-12.36,1.61-18-1.89A64.68,64.68,0,0,1,958,1252.08c4.46,0,8.27,1.89,12.23.17,3.42-1.48,5.22-2.3,2.21-6.5-5.35-7.5-5.46-16.56-5.4-25.44a2.31,2.31,0,0,1,.84-1.67c4.65-3,6.86-7.55,8.44-12.57.75-2.4,2.6-3,4.11-1.38,7.92,8.28,16.52,16.17,18.66,28.28.09.49.12,1,.23,1.48.93,4.37-1.12,8.77-.56,12.8.59,4.22,7.37,2.15,9.5,6C1008.66,1254,1009.16,1254.66,1010,1256Z" transform="translate(0 -0.75)"/><path class="d" d="M1004,1187.57c5.53-5.54,6.06-11.57,4.67-17.46-2.67-11.29-.66-21.73,4.19-31.91.51-1.08.33-3,2.2-2.68a2.4,2.4,0,0,1,1.82,3.48c-4.91,10.15-.87,20.24-.11,30.35a25.13,25.13,0,0,1-5.31,17.75c-4.42,5.71-10.05,10.18-15.46,14.82-2.53,2.17-6.1,1.71-8.94.31-6.1-3-11.9-6.61-18-9.57-3.92-1.9-6.57-4.9-5.68-8.84s4.84-6.1,9.06-6.67,8.28.49,12.39,1c5.61.71,11.18,1.84,16.86,1.1,1.76-.23,2.44.29,2.35,2S1004,1184.87,1004,1187.57Z" transform="translate(0 -0.75)"/><path class="d" d="M914,1151.89c.24-3.43-.77-6.19-1.64-9.05-1.75-5.79-.72-11.12,3.59-15.67a56,56,0,0,1,10.62-8.18c4.17-2.7,8.8-4.87,11.92-8.89,2.29-3,3.05-1.1,3.88.9,2.11,5,2,10.39,1.77,15.7-.09,2,0,3.09,2.52,3.67,5.32,1.21,8.42,6.19,7.27,10.65-.8,3.11-8.36,6.45-12,4.54-4-2.08-7.33-1-10.94.3C925.54,1147.78,920.45,1150.7,914,1151.89Z" transform="translate(0 -0.75)"/><path class="d" d="M987.54,1043.67c-2-3.83-4.12-7.24-5.74-10.85-3.62-8.1-2.39-15.5,3.7-22.07,4.88-5.28,10.87-9.25,16.38-13.78,2-1.65,3.08-1.26,4.63,1.47,5.34,9.41,3.86,18.17-1.24,26.87A56.56,56.56,0,0,1,987.54,1043.67Z" transform="translate(0 -0.75)"/><path class="d" d="M939.63,1259.6c-1.9-3.47-3.85-6.56-5.34-9.87-4.31-9.53-2.94-17.7,4.7-24.93,4.8-4.54,10.28-8.37,15.4-12.58,1.56-1.28,2.45-.88,3.58.63,5.22,7,5.4,20.07,0,27.2A141.3,141.3,0,0,1,939.63,1259.6Z" transform="translate(0 -0.75)"/><path class="d" d="M966.26,1037.38c15-1.09,28.54,11.82,34.21,32.34-.48.09-1.08.4-1.43.23-9.32-4.62-19.22-2.81-29-2.63-7.94.15-15-1.47-19-9.2a18.76,18.76,0,0,1-.79-2.33c6.07,2.06,11.44,2.16,16-2.61C971.25,1047.91,967.5,1042.65,966.26,1037.38Z" transform="translate(0 -0.75)"/><path class="d" d="M962.9,1292.52c-.68,4.81-1.4,10.28-4.75,14.9-4.66,6.44-13,6.13-16.73-.89-2.47-4.71-6.16-5.67-10.78-5.07-3.13.41-6.13.63-7.54-3s-1.67-6.91,1.78-9.91c4.21-3.68,8.89-3.76,13.59-2.15,7.33,2.51,14.52,4.56,22.32,2C962.91,1287.7,963.09,1288.21,962.9,1292.52Z" transform="translate(0 -0.75)"/><path class="d" d="M941,1048.11c.15,5.52-7.47,10.68-12.53,8.42-8.54-3.8-17.52-6.21-26.31-9.19-2.64-.9-3.08-1.65-1.41-4,3.05-4.34,4.9-9.45,8.43-13.52,3.39-3.9,10-3.63,12.54.93,3.1,5.55,7,9.33,13.59,10.52C938.86,1041.89,940.65,1045,941,1048.11Z" transform="translate(0 -0.75)"/><path class="e" d="M973.25,1108.62c-6.38-4.2-8.06-9.36-4.83-13.53,1.56-2,8-2.48,10.51-.77s3.12,6.46,1.14,9.15-4,5.34-5.82,8.09c-6.27,9.3-7.71,19.17-3.8,29.86,2.61,7.16,5.29,14.4,3.68,22.3a6.76,6.76,0,0,1-.21,1.47c-.94,1.94-.25,5.52-3.1,5.37-1.65-.09-.72-3.42-1.05-5.26-1.75-9.81-3.42-19.63-5.11-29.44C962.86,1125.45,964,1115.93,973.25,1108.62Z" transform="translate(0 -0.75)"/><path class="e" d="M856.93,1132c-1.39,4.24-2.61,8.12-3.94,12-.58,1.68-.84,2.7,1.27,3.83,5.44,2.89,6,6.16,1.62,10.32-3.06,2.93-3.37,5.18-1.45,9.25,4,8.49,3,17.52.36,26.35-.27.9-.51,2.16-1.75,2.09-1.46-.09-1-1.44-1-2.32-.14-11.08-3-21.71-5.4-32.4-2.53-11.09,2.23-20.12,8.37-28.7C855.16,1132.14,855.85,1132.22,856.93,1132Z" transform="translate(0 -0.75)"/><path class="d" d="M919,1225c.34,3.9-.76,6.25-3.45,7.48s-5.37,2.4-8.38.2-6.62-3.78-9.66-6-4.63-5.28-2.55-9.08c1.95-3.56,4.55-5.56,8.88-3.67,3.93,1.71,8,3.1,11.93,4.84C918.83,1220.13,918.66,1223.24,919,1225Z" transform="translate(0 -0.75)"/><path class="e" d="M931.15,1061.09c-1.24,5.45-2.15,9.61-3.12,13.76-2.22,9.47-.22,18.88.37,28.31.68,10.94-3.44,17-14,20.37a3.1,3.1,0,0,1,.57-3.67c6.43-7.55,7.72-16.7,8.07-26.13.31-8.48.34-17,3.1-25.15C926.92,1066.21,927.36,1063.46,931.15,1061.09Z" transform="translate(0 -0.75)"/><path class="e" d="M1002.28,986.56c6.13,1.24,6.13,1.24,15.25-6.78,3.39,5.45-1.5,7.66-4.21,10.43s-6.33,3.83-9.82,1c-2.64-2.16-5-4.15-8.71-4.91-3.87-.79-4-5.2-3.49-8.32s2.31-6.5,6.23-6.7c4.32-.22,6.57,2.6,7.45,6.55C1005.69,981,1004.27,983.65,1002.28,986.56Z" transform="translate(0 -0.75)"/><path class="l" d="M933.65,1216.23c.35,3-1,5.72-2.41,8.24-4.29,8-4.6,16-1.68,24.5,2.42,7.06,4.32,14.34,3.49,22a62.75,62.75,0,0,1-1.43,7.3c-.17.76-.56,1.68-1.59,1.62-1.19-.07-1-1.09-1-1.86,0-1.16,0-2.32,0-3.49.14-7.27-.44-14.1-3.54-21.17-5.63-12.84-1.47-25,5.84-36.23A1.93,1.93,0,0,1,933.65,1216.23Z" transform="translate(0 -0.75)"/><path class="e" d="M1016,1203.94l1.19,1.13a26.3,26.3,0,0,1-10.4,14.42c-3.12,2.24-6.35,1.18-9-1.31a27.44,27.44,0,0,1-6.43-9.92c3.33-.44,6.55-.94,8.87-3.47a2.73,2.73,0,0,1,3.25-.48C1007.7,1206.26,1011.88,1207.15,1016,1203.94Z" transform="translate(0 -0.75)"/><path class="e" d="M835,1163.79c0,4.06-3.06,6.68-8.09,6.94-2.81.14-7.47-4.94-7.5-8.18,0-3.41,4.2-8.4,7.14-8.4C832.23,1154.14,835,1157.32,835,1163.79Z" transform="translate(0 -0.75)"/><path class="e" d="M866.16,1122.61c0,4.8-3.08,7.41-8.61,7.37-3.33,0-7.33-5-7.42-9.2,0-2.3,4.6-6.62,7.07-6.56C863.82,1114.38,866.22,1116.62,866.16,1122.61Z" transform="translate(0 -0.75)"/><path class="d" d="M912.49,1248c.12,4.64-2.28,6-8.17,6.23a7.5,7.5,0,0,1-7.6-7.57c.08-3.55,4.21-8.58,7-8.42C910.14,1238.55,911.83,1241.37,912.49,1248Z" transform="translate(0 -0.75)"/><path class="g" d="M948.17,1092c4.53,0,7.64,3.74,7.51,9-.11,4.14-3,6.66-7.71,6.75s-7.21-2.69-7.15-8C940.87,1094.74,943.5,1092,948.17,1092Z" transform="translate(0 -0.75)"/><path class="e" d="M956.26,1035.9c5.74,3.18,8,7.76,5.92,11.82-2,3.76-6.3,5.36-9.6,3.54-4.76-2.62-6.28-6.93-3.89-11A9.49,9.49,0,0,1,954,1036Z" transform="translate(0 -0.75)"/><path class="e" d="M902.75,1303.75c-.06-5.16,2.54-8.67,6-8.75,4.07-.11,8.3,4.8,8.16,9.47-.09,3.14-4.78,6.71-8.88,6.41C903.24,1310.53,903.66,1306.31,902.75,1303.75Z" transform="translate(0 -0.75)"/><path class="g" d="M957.22,1273.1c-.06,5.56-2.07,7.67-7.45,7.79-3.42.07-6.83-4.14-6.7-8.45.11-3.68,2.31-5.32,5.8-5.29C956.08,1267.21,957.26,1268.09,957.22,1273.1Z" transform="translate(0 -0.75)"/><path class="e" d="M977.84,1311c-4.78,0-6.94-2.09-6.78-6.6.12-3.52,4-7.39,7.32-7.4s6.75,4.18,6.88,8.3C985.38,1309.1,982.91,1311,977.84,1311Z" transform="translate(0 -0.75)"/><path class="l" d="M988.05,1134.07c.39-2.44,2.87-4.42,6.07-4.83,4.5-.59,8.92,4.17,8.78,8.84-.06,2.29-5.18,5.78-8.38,5.72C991.71,1143.75,988.06,1138.94,988.05,1134.07Z" transform="translate(0 -0.75)"/><path class="l" d="M879,1189.71c0,5.56-1.61,7.16-7.23,7.2-3.26,0-7.18-3.94-6.61-7.32s1.86-6.49,6.15-6.43C879,1183.26,879,1183.32,879,1189.71Z" transform="translate(0 -0.75)"/><path class="l" d="M938,1059.39c9.35,3.63,12.63,18.33,11.88,25.09-.17,1.52-1,3.13-2.55,3.36-2.1.32-1.33-1.87-1.73-2.9A136.86,136.86,0,0,1,938,1059.39Z" transform="translate(0 -0.75)"/><path class="l" d="M998,1165.11a7.32,7.32,0,0,1-6.79,7.69c-3.35.24-7.31-4.76-7-9.31.23-3.23,2.9-4.91,5.62-5.2C995,1157.76,997.94,1160.52,998,1165.11Z" transform="translate(0 -0.75)"/><path class="e" d="M906.59,1070.91c-2.55-.37-3.79-3.24-4-6.51a6.86,6.86,0,0,1,6.79-7.4c3,.1,7.51,5,7.44,8.11C916.79,1067.91,912,1071.09,906.59,1070.91Z" transform="translate(0 -0.75)"/><path class="u" d="M909.78,1193.29a44.88,44.88,0,0,1,3.24,15c0,1.72-.09,3.37-1.36,4.63-1,1-2.57,2-2.6-.46-.13-8.64-5-15.77-7.14-23.77-.34-1.26-.56-2.56-.86-4,2.49.17,3.5,2.11,5.07,3.19Z" transform="translate(0 -0.75)"/><path class="u" d="M847,1083.08c.54-1.13.83-2.43,2.11-3-.48,1.56.86,1.9,1.71,2.6,7.7,6.34,9.59,14.81,8.65,24.22-.12,1.23.18,3.4-2.24,3.08-2.08-.26-1.16-2.06-1.32-3.19C854.74,1098.18,851.38,1090.45,847,1083.08Z" transform="translate(0 -0.75)"/><path class="l" d="M963.84,1176.61c-2.11.74-2.72-.72-3.55-1.63-2.88-3.21-5.37-6.88-8.64-9.61-4.65-3.91-3.57-8.86-3.63-13.72,0-.89.19-1.66,1.33-1.61.64,0,1.48-.07,1.63.75,1.54,8.89,9.1,14.57,12.06,22.69A30.59,30.59,0,0,1,963.84,1176.61Z" transform="translate(0 -0.75)"/><path class="u" d="M1003.83,1094.84c-1.06.05-2,.38-2.32.07-6.25-5.21-13.17-4.19-20.23-2.4-1,.26-2.41,1.1-3.09-.28s.23-2.37,1.32-3.36C987.25,1081.88,999.44,1084.63,1003.83,1094.84Z" transform="translate(0 -0.75)"/><path class="u" d="M908.59,1258.57a150.68,150.68,0,0,1,14.35,25.86c-2,1-2.58-.25-3.3-1-2.44-2.71-4.52-5.85-7.29-8.14C907,1270.8,906.07,1265.54,908.59,1258.57Z" transform="translate(0 -0.75)"/><path class="o" d="M963.82,1323.87c-5.11-.44-9.06-2.88-12.94-5.44a2.16,2.16,0,0,1-.67-1.67c0-.94,1-.66,1.55-.75,2-.33,3.85.6,5.77,1.08,5,1.24,10.11,2.57,14-2.62.83-1.1,2-1.93,3.35-.66s.94,2.18-.06,3.4A17.81,17.81,0,0,1,963.82,1323.87Z" transform="translate(0 -0.75)"/><path class="u" d="M880.45,1147.63c-1.41.51-2.77.77-3.62,0-5.42-5-11.37-3.18-17.39-1.65-1.18.3-2.72,1.94-3.85-.29-1-2.06.76-2.61,1.81-3.48C865.42,1135.57,873.63,1137.41,880.45,1147.63Z" transform="translate(0 -0.75)"/><path class="u" d="M845.11,1200.89c-6.51-6.69-15.34-11.83-15.2-22.89,0-1.19-.74-3,.78-3.46,1.81-.52,2.43,1.15,2.79,2.68,1.14,4.79,3.92,8.68,6.77,12.56C842.67,1193.06,845.07,1196.37,845.11,1200.89Z" transform="translate(0 -0.75)"/><path class="l" d="M1021.8,1250.62c-.67.15-1.21.46-1.61.33-7.26-2.45-16.08-17.67-14.39-24.78.17-.73,0-1.9,1.17-1.72.71.11,1.87.74,1.93,1.23,1.06,9,7.89,14.79,11.83,22.17A24.63,24.63,0,0,1,1021.8,1250.62Z" transform="translate(0 -0.75)"/><path class="v" d="M956.26,1035.9,954,1036c-4.62-2.74-8.7-.75-12.84,1.33-1.58.8-3.35,3.11-5,1.58-2.32-2.17.42-3.79,1.69-5.29C944.57,1025.63,948.51,1026.15,956.26,1035.9Z" transform="translate(0 -0.75)"/><path class="o" d="M911.4,1312.46a9.91,9.91,0,0,1,4.83-1.47c4-.46,7.31-2,9.43-5.59.53-.92.8-2.4,2.39-1.78a2.93,2.93,0,0,1,1.81,3.69,12.55,12.55,0,0,1-8.9,8.56C917.43,1316.76,913.75,1316.06,911.4,1312.46Z" transform="translate(0 -0.75)"/><path class="w" d="M909.78,1193.29l-3.65-5.35.85-.92,4,5Z" transform="translate(0 -0.75)"/><path class="x" d="M865,1058c-1.25.58-2.42,1.46-4.15,1.23.91-2.19,2.54-2.14,4.17-2.09C865,1057.39,865,1057.68,865,1058Z" transform="translate(0 -0.75)"/><path class="d" d="M89.93,511.3c4,3.95,8.75,5,14.14,4,1.21-.24,3-1,3.61.4.84,1.83-1.24,2.47-2.33,3.29-6.53,4.87-12.62,3.66-16.89-4-2.09-3.76-3.31-3.48-6-.82-4.46,4.42-8.88,9-15.15,11-2.08.68-3.68.7-5.52-.68A50.5,50.5,0,0,0,55,520.41C37.19,511,37.23,511,29.81,492.61c-.87-2.15-.56-3.06,1.49-3.63,3.67-1,7.33-2.05,11-3,4-1,8-1.91,11.66-4.09a8.54,8.54,0,0,1,11.73,3.53c2.14,3.94,5.74,6.38,8.83,9.39,1.64,1.6,3.12.42,4.59,0,8.22-2.14,13.06,1.7,12.51,10,0,.48-.43,1.29-.3,1.37C96.39,509.34,90.13,509.47,89.93,511.3Z" transform="translate(0 -0.75)"/><path class="d" d="M88.41,580.75c5-2.54,9.33-6,14.46-7.94.9-.35,1.92-1.3,2.7-.36,1.07,1.28-.4,1.94-1.1,2.78-5.71,6.79-13,11.26-21.13,14.5-1.63.66-3.16,1.58-5.18.51-9.68-5.12-19.49-4-29.46-.67-1.59.52-4.41,3-5.44.12s2.54-2.85,4.29-3.73c8.65-4.35,17.79-5,27.19-3.4,1,.17,2.36,1,3.07-.39.5-1-.34-1.89-.89-2.71-8-11.69-8.19-24.69-5.92-37.91,1.16-6.69,5.37-12.09,9.31-17.44,1.35-1.84,3.22-1.7,4.46.32A21.58,21.58,0,0,0,91.56,531c8.75,5.79,11.44,20,8.76,28.17A64.06,64.06,0,0,1,88.41,580.75Z" transform="translate(0 -0.75)"/><path class="d" d="M24.63,646.69c-3.05-5-6.45-9.39-7.15-15-.16-1.26-1-2.68.23-3.7a3.7,3.7,0,0,1,4.63-.17,6.41,6.41,0,0,0,1.34.66c7.48,2.81,11.16.92,12.79-6.78.76-3.56,1.12-7.21,1.7-11.15,4.56,1.93,7,5.6,8.54,9.75A46.71,46.71,0,0,1,50,637.8a121.13,121.13,0,0,0,1.44,21.35c.15.92,1,2.05-.16,2.65a2.6,2.6,0,0,1-3.14-.81c-4.49-4.73-10.64-6.6-16.28-9.35-1.32-.65-2.89-1.86-2.63,1.28.4,5-1.64,8-5.43,8.27a8.16,8.16,0,0,1-8.74-7.62c-.14-3.83,2.62-6.36,7.27-6.66C23,646.87,23.55,646.79,24.63,646.69Z" transform="translate(0 -0.75)"/><path class="d" d="M56.3,555.79c-10.56-4.43-21.66-4.07-29.21-12.59a20.76,20.76,0,0,1-4.91-12.8c-.33-5.15-.07-10.33-.25-15.49-.08-2.53.83-3.22,3.22-2.65a56.81,56.81,0,0,1,14.53,5.1,19.11,19.11,0,0,1,10.08,13.46c1.23,5.73,3.47,6.64,9.1,4.25,2.9-1.23,5.67-2.77,8.54-4.09.66-.31,1.46-1.2,2.18-.39a1.85,1.85,0,0,1-.16,2.7c-4.44,3.49-7.9,8.91-14.8,7.72-3.34-.58-3.94.83-3.14,3.9C52.38,548.33,53.93,551.42,56.3,555.79Z" transform="translate(0 -0.75)"/><path class="d" d="M27.94,558.15c-.14,8.37,2.38,15.71,5.65,22.88a83.65,83.65,0,0,1,2.76,8c2.63,7.69-2.13,10.29-8,11.86-3.85,1-5.34-2.1-6.79-4.6-2.76-4.76-4.85-9.28-9.69-13.25-9.4-7.69-6.85-12.6,2.23-19.15C17.93,561.09,22.54,559.36,27.94,558.15Z" transform="translate(0 -0.75)"/><path class="e" d="M59.07,426.42c11.19,3,15.28,7.83,16.92,19.83a28.7,28.7,0,0,1,.38,7,66.45,66.45,0,0,0,3.75,31.85c.32.84,1.73,2.13-.22,2.82-1.38.49-2.16-.42-2.68-1.58-4.4-9.82-9.76-19.39-6.09-30.88,2.37-7.42-.23-13.7-5.42-19.13C63.07,433.54,60.53,430.69,59.07,426.42Z" transform="translate(0 -0.75)"/><path class="e" d="M23,623.92c-1-.39-3.06-.56-3.93-1.68-3.45-4.38-8.37-7.67-10.22-13.27-1.26-3.8,4.58-13.26,8.48-13.71a2.38,2.38,0,0,1,2.51,1.24c.53,1.1-.3,1.84-1.1,2.48-3.41,2.7-4.6,6.38-4.67,10.56,0,1.16-.27,2.51.93,3.17,1.47.8,2-.8,2.67-1.53,1.9-1.95,3.74-3.62,6.85-3.17,4.57.65,8.76,4.69,8.39,8.46C32.6,619.21,26.83,623.84,23,623.92Z" transform="translate(0 -0.75)"/><path class="e" d="M90.32,608.47c0,4-4.2,7.37-9,7.27-4-.08-8.25-4.81-8.14-9,.08-3.09,4.76-7.76,7.72-7.7A9.46,9.46,0,0,1,90.32,608.47Z" transform="translate(0 -0.75)"/><path class="e" d="M106,514c-3.77-.05-7.13-4.84-6.9-9.84.13-2.93,4.43-7,7.35-7,4.39,0,8.58,4.6,8.53,9.29C114.9,510.46,110.65,514,106,514Z" transform="translate(0 -0.75)"/><path class="e" d="M43.43,443.15c5.27.07,9.66,3.87,9.5,8.24-.13,3.78-3.93,6.72-8.51,6.61-2.7-.07-7.27-5-7.22-7.7C37.29,446.46,40.2,443.11,43.43,443.15Z" transform="translate(0 -0.75)"/><path class="e" d="M34.32,421c4.4,0,7.33,3.39,7.33,8.58,0,4-2.84,6.69-7.08,6.77-4,.08-7.36-3.6-7.52-8.33C26.92,424.29,30.3,421,34.32,421Z" transform="translate(0 -0.75)"/><path class="l" d="M51.11,385.23c-8.31,6.12-16.34,11-25.26,14.25-.94.35-1.93.87-2.63-.13a1.88,1.88,0,0,1,.4-1.76c6.06-4.66,9.84-12.17,18.29-13.9C45.13,383,47.63,383.71,51.11,385.23Z" transform="translate(0 -0.75)"/><path class="e" d="M37.06,567.19c0-2.28,4.32-6.92,6.64-7.07,3.89-.26,8.26,4.58,8.21,9.08,0,3.37-3.94,6.61-8,6.61C41,575.81,37.1,570.93,37.06,567.19Z" transform="translate(0 -0.75)"/><path class="l" d="M61.77,609.06c-7.46-.32-14.39-2.23-20-7.48-1-1-2.56-2.31-1.52-3.82s2.44.1,3.58.42c7.79,2.23,15,6.18,23.09,7.61.82.15,1.67.33,1.67,1.44a1.65,1.65,0,0,1-1.85,1.82C65.09,609.07,63.43,609.06,61.77,609.06Z" transform="translate(0 -0.75)"/><path class="l" d="M55,467.78c.06,5.6-8.45,14.08-13.67,13.87-.4,0-1-.26-1.13-.53a2.12,2.12,0,0,1,.73-2.66c6.63-3.85,7.55-10.43,8.37-17.12.16-1.31,0-3.24,2.19-3.31s2,2,2.32,3.2C54.34,463.46,55.31,465.65,55,467.78Z" transform="translate(0 -0.75)"/><path class="y" d="M99.05,469.6c-.53,8.38-5,14.7-8.59,21.39a2.18,2.18,0,0,1-1.6.83c-.94,0-.85-.87-.83-1.47,0-1.31-.2-2.84.38-3.9,3.77-6.84,5.06-14.31,6-21.91.14-1.12-.16-3.05,1.53-3.15,1.92-.1,2.13,1.64,2.3,3.2C98.47,466.4,98.82,468.19,99.05,469.6Z" transform="translate(0 -0.75)"/><path class="j" d="M15,492c5.21-1,6.83,3.06,7.79,6.54,1.94,7-1.09,11.53-8.72,14-.29-3.94,4.46-6,3.56-10-.81-3.54-1.69-7.08-2.54-10.61Z" transform="translate(0 -0.75)"/><path class="d" d="M965.83,22.19c.34-.32.93-.62,1-1,.46-4.87,2.66-7.67,8-7.17,6.09.58,9.7,3.87,10.14,9.53a20.21,20.21,0,0,1-1.83,10.19,27.42,27.42,0,0,0-1.47,19.78c.86,3,.13,3.94-3.15,3a73.83,73.83,0,0,0-9.77-1.67c-8.67-1.3-13.74-8.72-11.64-17,.43-1.68,1.89-2.22,2.89-3.26,3.43-3.51,6.29-7.28,6-12.56Z" transform="translate(0 -0.75)"/><path class="f" d="M962.49,79c-4.84.07-7.34-1.85-7-6.57.22-3-.71-3.1-3.13-3.61-7.24-1.52-11.45-14.29-6.85-20.07.62-.78,1.15-1.63,1.82-2.35,1.09-1.17,1.11-4.26,3.69-2.84,1.85,1,1.4,3.46.54,5-3.65,6.3-1,11.39,2.57,16.52,1.35,1.94,2.08,2.57,4.51,1,6.49-4.17,11.78-1.59,12.93,5.88C972.32,76.75,969.59,78.88,962.49,79Z" transform="translate(0 -0.75)"/><path class="e" d="M989.07,42.15a7,7,0,0,1,6.6-7c5.28-.07,8.27,3.28,8.33,9.31,0,4.22-2.94,6.54-8.4,6.53C991.84,50.94,989.1,47.24,989.07,42.15Z" transform="translate(0 -0.75)"/></svg>