<svg xmlns="http://www.w3.org/2000/svg" viewBox="0 0 1024.19 1493.19"><defs><style>.a{fill:#eef0ed;}</style></defs><path class="a" d="M515,1494q-254.74,0-509.5.09c-3.75,0-4.59-.84-4.59-4.59Q1,747.5.91,5.5C.91,1.75,1.75.91,5.5.91q507.5.15,1015,0c3.75,0,4.59.84,4.59,4.59q-.13,742,0,1484c0,3.75-.84,4.6-4.59,4.6q-110.25-.19-220.5-.1c11.1-18.88,22.57-37.55,33.2-56.68,12.42-22.34,25.52-44.26,38.27-66.4a9,9,0,0,0,.6-8c-2-6.12-6.1-11-9-16.63-7.22-13.86-14-28-22.29-41.23-8.15-12.89-16.06-25.94-23.56-39.17-7.19-12.68-14.82-25.11-21.79-37.93-8.3-15.29-17.4-30.14-26-45.25-1.83-3.2-4.07-4.75-8-4.75q-103.45.15-206.89,0c-3.27,0-5,1.07-6.61,4-5.9,10.77-12.08,21.38-18.28,32-6.51,11.15-13.56,22-19.67,33.38-10.85,20.17-23,39.58-33.85,59.77-10.41,19.44-22,38.27-33.09,57.34-.92,1.58-1.44,3-.34,4.61,6.36,9.1,11,19.22,16.67,28.7,9.2,15.34,18.12,30.85,27.13,46.3,6.17,10.6,12.62,21.07,18.29,31.93C508,1482.09,512.3,1487.59,515,1494ZM664,722H775c2.47,0,4.76.27,6.39-2.6,10.87-19,22-38,32.9-57,17.93-31.24,35.74-62.57,53.7-93.8,7.62-13.23,15.52-26.3,23.26-39.46,2.23-3.8,3.76-7.38,1-12-8.42-13.92-16.4-28.09-24.57-42.16-13.26-22.82-26.59-45.6-39.79-68.45q-23.19-40.12-46.15-80.37a5.6,5.6,0,0,0-5.52-3.25q-112.47.07-224.94,0c-2.72,0-4.15.95-5.44,3.3-4.17,7.56-8.6,15-12.93,22.46q-15.26,26.31-30.5,52.62Q483.44,434.13,464.6,467q-14.94,25.92-30,51.75a6.54,6.54,0,0,0,0,7.41c4.19,7,8.2,14.07,12.29,21.11q15.62,26.93,31.22,53.87,18.09,31.26,36.11,62.56c10.38,18,20.88,35.91,31.06,54,1.81,3.22,3.66,4.39,7.31,4.38C589.69,722,626.85,722,664,722Zm-2.69,408c33.82,0,67.65-.14,101.46.13,5.61,0,9.18-1.28,11.13-6.72.94-2.61,2.66-4.94,4.08-7.36,6.64-11.31,13.39-22.55,19.93-33.92,7.52-13.1,14.71-26.39,22.32-39.44,10-17.19,20.67-34,30.36-51.39,8.09-14.49,16.48-28.79,24.75-43.16a8.52,8.52,0,0,0,.58-8.45c-4.23-9.61-9.82-18.48-15-27.57-6.3-11.14-10.63-23.4-18.21-33.75-8.87-12.11-15.09-25.72-23.06-38.33-7.17-11.33-13.32-23.3-20-34.93-8.77-15.24-17.69-30.39-26.4-45.66-2-3.53-4.71-4.51-8.61-4.51-66,.09-131.95.23-197.92-.12-8.83-.05-14,1.85-18.62,10.25-10.76,19.45-22.14,38.6-33.3,57.84-11.63,20.05-23.54,40-34.55,60.39-10.55,19.57-22,38.66-33.11,57.92-1,1.75-1.54,3.23-.31,5,5.68,8.37,9.91,17.58,15.21,26.2,10,16.23,19.65,32.68,28.75,49.42,7.76,14.3,16.35,28.12,24.2,42.38,11.29,20.48,23.63,40.38,35.34,60.64,2,3.51,4.11,5.25,8.5,5.22C593,1129.91,627.16,1130,661.31,1130ZM296.5,919q51.5,0,103,0c3,0,5.56-.26,7.08-3.31,2.68-5.35,6.27-10.23,9-15.49,7-13.59,15.25-26.44,22.66-39.78,11.12-20,23.18-39.48,34.66-59.29s22.45-40,34.32-59.59c4.08-6.74,5.19-12.47.62-19a9.17,9.17,0,0,1-.46-.88c-14.89-26.29-28.65-53.2-44.74-78.82-8-12.75-15.78-25.68-23-38.9-10.25-18.79-21.48-37-32-55.66-1.82-3.23-4.13-4.47-8-4.45-28,.19-56,.11-84,.11q-60.75,0-121.5,0c-3.16,0-5.65.31-7.49,3.55-13.14,23.06-26.46,46-39.72,69-13.1,22.72-26.38,45.34-39.22,68.2-8,14.31-16.7,28.27-24.33,42.82-1.69,3.22-3.1,5.58-1.07,9,6.44,11,12.69,22.07,19.09,33.06,12.46,21.37,25.26,42.55,37.36,64.12,7.65,13.61,15.58,27.07,23.28,40.64,7,12.35,14.42,24.51,21.32,36.92,3.29,5.93,6.92,7.9,13.63,7.83C230.16,918.79,263.33,919,296.5,919Z" transform="translate(-0.91 -0.91)"/></svg>